Coordinates
version=1
nRows=21
nColumns=33
inDegrees=yes

Units are S.I. units (second, meters, Newtons, ...)
Angles are in degrees.

endheader
time	ground_thorax_rot_x	ground_thorax_rot_y	ground_thorax_rot_z	ground_thorax_tx	ground_thorax_ty	ground_thorax_tz	clav_prot_r	clav_elev_r	scapula_abduction_r	scapula_elevation_r	scapula_upward_rot_r	scapula_winging_r	shoulder_elv_r	plane_of_elev_r	axial_rot_r	elbow_flexion_r	pro_sup_r	wrist_flex_r	wrist_dev_r	clav_prot_l	clav_elev_l	scapula_abduction_l	scapula_elevation_l	scapula_upward_rot_l	scapula_winging_l	shoulder_elv_l	plane_of_elev_l	axial_rot_l	elbow_flexion_l	pro_sup_l	wrist_flex_l	wrist_dev_l
      3.27000000	    -38.20632860	     -4.83810433	      7.60275994	    -44.83220994	    845.73589324	    -43.64463851	     17.94685571	    -45.00000000	     40.59080333	    -45.00000000	    -20.73316263	  -3334.13837926	   -645.95086185	     23.88408636	    179.99999979	   2162.08521064	   -182.78487959	     15.57974306	     14.86627014	      7.05485194	     29.26749754	    -35.55437275	    -45.00000000	    -45.00000000	  -2083.72789403	  -3140.93832880	     20.83004986	   -179.99999979	   1435.77328854	    153.27330343	     10.34419071	    -16.16711536
      3.28000000	    -38.10486481	     -6.51445576	      9.13991684	    -48.24736562	    848.44392416	    -43.73178611	     19.76656146	    -45.00000000	     40.45593568	    -45.00000000	    -23.88283813	  -3334.67671236	   -645.74396998	     24.34076205	    179.99999979	   2161.99665827	   -183.16176724	     15.61798258	     15.00430700	      6.40534843	     29.36448698	    -34.45389442	    -45.00000000	    -45.00000000	  -2083.45437425	  -3140.90332903	     20.53882524	   -179.99999979	   1436.06389060	    156.87145812	     10.67603131	    -16.36852138
      3.29000000	    -38.23023687	     -5.74886336	      8.28592730	    -51.66124048	    851.05726956	    -43.82551266	     19.17751724	    -45.00000000	     40.45518143	    -45.00000000	    -23.28007135	  -3334.96324699	   -645.67697775	     24.33716502	    179.99999979	   2161.97406509	   -183.37999124	     15.68506253	     15.08468415	      6.85117540	     29.45620722	    -34.75907121	    -45.00000000	    -45.00000000	  -2083.27706806	  -3140.71453295	     20.44496089	   -179.99999979	   1435.98928010	    159.20747470	     10.31076632	    -16.83030202
      3.30000000	    -38.17906819	     -6.71422166	      9.18007765	    -55.05703987	    853.55169422	    -43.92456791	     19.87195033	    -45.00000000	     39.99757884	    -45.00000000	    -25.71196117	  -3334.91120478	   -645.24541293	     24.35950394	    179.99999979	   2161.92388747	   -183.71957970	     15.96582394	     15.04330111	      5.63228078	     29.57242081	    -34.16499507	    -45.00000000	    -45.00000000	  -2082.72304370	  -3140.80593941	     20.51430212	   -179.99999979	   1436.23912745	    164.22991805	      9.89088274	    -17.61923612
      3.31000000	    -38.22899645	     -6.62862094	      9.00080488	    -58.42263932	    855.91027050	    -44.02850619	     19.98820664	    -45.00000000	     39.81772655	    -45.00000000	    -26.28566852	  -3335.16704618	   -645.09020142	     24.52676408	    179.99999979	   2162.05208082	   -183.91366151	     16.08424975	     15.04190640	      5.44348657	     29.63639229	    -34.09334519	    -45.00000000	    -45.00000000	  -2082.38482746	  -3140.70022471	     20.55765750	   -179.99999979	   1436.30217082	    168.71221414	      9.23877391	    -18.22798946
      3.32000000	    -38.31931123	     -5.84246714	      8.12550908	    -61.74076912	    858.11449619	    -44.13714784	     19.42388777	    -45.00000000	     39.88280707	    -45.00000000	    -25.71227243	  -3335.56313553	   -645.07796976	     24.59817849	    179.99999979	   2162.05544580	   -183.96110728	     16.05990998	     15.16139322	      6.21214200	     29.72833442	    -34.32625243	    -45.00000000	    -45.00000000	  -2082.36879048	  -3140.51405966	     20.37653819	   -179.99999979	   1436.10188016	    170.94582981	      8.91251256	    -18.48463392
      3.33000000	    -38.42431469	     -5.54161910	      7.71774621	    -65.00169701	    860.15263687	    -44.25067086	     19.22805565	    -45.00000000	     39.59348701	    -45.00000000	    -26.14094707	  -3335.68967558	   -644.97453852	     24.67554545	    179.99999979	   2162.08180862	   -183.98515175	     16.17778668	     15.17226609	      6.14574989	     29.77760381	    -34.26519945	    -45.00000000	    -45.00000000	  -2082.15664350	  -3140.34730291	     20.37235973	   -179.99999979	   1436.11255846	    173.08437454	      8.55632771	    -18.72531420
      3.34000000	    -38.39868149	     -6.71935050	      8.79525433	    -68.19530066	    862.01670433	    -44.36863728	     20.46668811	    -45.00000000	     39.21795327	    -45.00000000	    -28.94066008	  -3335.74121361	   -644.61663909	     24.77442728	    179.99999979	   2162.13208533	   -184.05772700	     16.55355304	     15.01181536	      4.81457089	     29.90347833	    -33.58504496	    -45.00000000	    -45.00000000	  -2081.59672379	  -3140.47455946	     20.47346767	   -179.99999979	   1436.37592281	    178.79835986	      7.83351456	    -19.32686848
      3.35000000	    -38.61210528	     -5.06636139	      7.07024311	    -71.30889368	    863.69972692	    -44.48894096	     18.62121322	    -45.00000000	     38.50574912	    -45.00000000	    -27.63000763	  -3335.44222392	   -644.56532069	     24.68493654	    179.99999979	   2162.20731920	   -184.05424079	     16.60803231	     14.99586772	      5.17161739	     29.74091679	    -34.11965572	    -45.00000000	    -45.00000000	  -2081.57954991	  -3140.19215603	     20.61779866	   -179.99999979	   1436.13219197	    180.41872697	      6.98734001	    -19.35228524
      3.36000000	    -38.74212318	     -2.96669831	      4.37240112	    -74.33798139	    865.19935434	    -44.60828725	     18.87159204	    -45.00000000	     39.15828089	    -45.00000000	    -25.25175639	  -3335.53868339	   -644.78562302	     24.59667018	    179.99999979	   2162.08941670	   -184.32568124	     16.63083019	     15.01794382	      5.58023018	     29.61347691	    -33.82539138	    -45.00000000	    -45.00000000	  -2082.10406144	  -3139.15816721	     20.77724301	   -179.99999979	   1424.43608744	    309.44901497	     -3.51449229	    -12.17644322
      3.37000000	    -38.80468585	     -2.27942585	      3.60163482	    -77.27328862	    866.51333053	    -44.72021367	     18.06914454	    -45.00000000	     38.72226513	    -45.00000000	    -25.32281600	  -3335.34429752	   -644.62101700	     24.49222332	    179.99999979	   2162.15080277	   -184.24122292	     16.86346126	     14.94224973	      5.67674727	     29.69748829	    -34.00686149	    -45.00000000	    -45.00000000	  -2081.96358167	  -3139.24038581	     20.82250014	   -179.99999979	   1424.45897018	    309.37045729	     -3.27964655	    -11.90705989
      3.38000000	    -38.89716178	     -2.10505444	      3.34259393	    -80.10724397	    867.64423389	    -44.81876381	     18.22270241	    -45.00000000	     38.46552134	    -45.00000000	    -26.02329847	  -3335.45743150	   -644.63448933	     24.56096085	    179.99999979	   2162.21647229	   -184.06847144	     17.00743155	     14.93047781	      5.48942369	     29.68097592	    -33.77482541	    -45.00000000	    -45.00000000	  -2081.89267551	  -3139.17550713	     20.86396015	   -179.99999979	   1424.58985706	    309.12314479	     -3.22114395	    -11.96198158
      3.39000000	    -38.96401439	     -2.17550673	      3.31959874	    -82.82737260	    868.58914188	    -44.89611895	     18.36117965	    -45.00000000	     38.18307702	    -45.00000000	    -27.07341936	  -3335.53738428	   -644.54626214	     24.60587057	    179.99999979	   2162.22663981	   -183.85199635	     17.13050582	     14.88081837	      5.36926585	     29.67447526	    -33.55342872	    -45.00000000	    -45.00000000	  -2081.83803497	  -3139.25242784	     20.79612331	   -179.99999979	   1424.78525547	    308.59220483	     -3.25827273	    -12.09222078
      3.40000000	    -39.01673744	     -2.34103382	      3.39107399	    -85.42171828	    869.34793081	    -44.94601923	     18.60369256	    -45.00000000	     37.96788100	    -45.00000000	    -28.26251958	  -3335.63256348	   -644.44975173	     24.66931857	    179.99999979	   2162.26867263	   -183.59121831	     17.24866628	     14.83492522	      5.17926042	     29.68722851	    -33.24994782	    -45.00000000	    -45.00000000	  -2081.77429620	  -3139.31159357	     20.73201161	   -179.99999979	   1424.90152396	    307.74707839	     -3.32182252	    -12.25675958
      3.41000000	    -39.09111585	     -2.48587382	      3.48899530	    -87.88010843	    869.92325526	    -44.96434396	     18.77045778	    -45.00000000	     37.68948319	    -45.00000000	    -29.40748925	  -3335.69263164	   -644.40681872	     24.67845967	    179.99999979	   2162.28267844	   -183.29952521	     17.38232471	     14.77112941	      4.96283284	     29.67835012	    -33.00045690	    -45.00000000	    -45.00000000	  -2081.72731907	  -3139.36041976	     20.66506770	   -179.99999979	   1425.08605027	    306.69797805	     -3.32909217	    -12.41016668
      3.42000000	    -39.13654620	     -2.71204531	      3.64529645	    -90.18715813	    870.31931457	    -44.94999618	     19.01818542	    -45.00000000	     37.47502554	    -45.00000000	    -30.59211436	  -3335.78273789	   -644.35458295	     24.71530124	    179.99999979	   2162.33024763	   -182.96345794	     17.48796136	     14.70746677	      4.79262686	     29.67727733	    -32.72621348	    -45.00000000	    -45.00000000	  -2081.68900532	  -3139.44281500	     20.59832843	   -179.99999979	   1425.23575929	    305.46485835	     -3.38354860	    -12.61230224
      3.43000000	    -39.20562309	     -2.92379470	      3.78425733	    -92.32620853	    870.54311676	    -44.90476105	     19.20269285	    -45.00000000	     37.21908546	    -45.00000000	    -31.72461363	  -3335.84210323	   -644.33086786	     24.74238406	    179.99999979	   2162.33457067	   -182.60232067	     17.61549658	     14.64421861	      4.56814197	     29.65817657	    -32.44859742	    -45.00000000	    -45.00000000	  -2081.66285237	  -3139.47847450	     20.53909877	   -179.99999979	   1425.41090926	    304.16098770	     -3.38774744	    -12.79139364
      3.44000000	    -39.24500891	     -3.17171781	      3.97519030	    -94.27645138	    870.60362539	    -44.83312902	     19.45425870	    -45.00000000	     37.01500437	    -45.00000000	    -32.83811223	  -3335.91890925	   -644.29306192	     24.78395002	    179.99999979	   2162.40039123	   -182.20355906	     17.70616500	     14.57614299	      4.41412108	     29.65540825	    -32.17466274	    -45.00000000	    -45.00000000	  -2081.65028255	  -3139.54399441	     20.49162026	   -179.99999979	   1425.54388505	    302.78500724	     -3.43224650	    -13.00177447
      3.45000000	    -39.29733944	     -3.38781341	      4.15894740	    -96.01755771	    870.51171610	    -44.74106983	     19.62217160	    -45.00000000	     36.76262654	    -45.00000000	    -33.87769807	  -3335.96634806	   -644.31469951	     24.79596259	    179.99999979	   2162.40144723	   -181.79920910	     17.82532286	     14.51788032	      4.20252877	     29.63014606	    -31.91240419	    -45.00000000	    -45.00000000	  -2081.67129606	  -3139.55503262	     20.45563905	   -179.99999979	   1425.68706995	    301.46916552	     -3.42051848	    -13.16797237
      3.46000000	    -39.33545630	     -3.65505193	      4.35072860	    -97.52887060	    870.27898915	    -44.63512995	     19.84199435	    -45.00000000	     36.54000997	    -45.00000000	    -34.84499245	  -3336.02097921	   -644.32248410	     24.85715597	    179.99999979	   2162.43664231	   -181.38468697	     17.91574226	     14.46494915	      4.05757400	     29.62563881	    -31.63790532	    -45.00000000	    -45.00000000	  -2081.69136223	  -3139.57205099	     20.42068447	   -179.99999979	   1425.81065474	    300.22078408	     -3.43784277	    -13.34916163
      3.47000000	    -39.38184202	     -3.89409251	      4.63274136	    -98.79732390	    869.91644405	    -44.52100882	     20.01940539	    -45.00000000	     36.25182875	    -45.00000000	    -35.76970305	  -3336.06605771	   -644.34271189	     24.89402757	    179.99999979	   2162.52783130	   -180.98833693	     17.98828123	     14.40819689	      3.88582686	     29.60675365	    -31.36140743	    -45.00000000	    -45.00000000	  -2081.73865145	  -3139.50187065	     20.41030467	   -179.99999979	   1425.91653996	    299.11762613	     -3.41532333	    -13.47185033
